
<svg width="32" height="32" viewBox="0 0 32 32" fill="none" xmlns="http://www.w3.org/2000/svg">
  <rect width="32" height="32" rx="8" fill="#D32F2F"/>
  <path d="M23 11.5C23 12.3284 22.3284 13 21.5 13C20.6716 13 20 12.3284 20 11.5C20 10.6716 20.6716 10 21.5 10C22.3284 10 23 10.6716 23 11.5Z" fill="white"/>
  <path d="M9 12.5C9 11.1193 10.1193 10 11.5 10H15.5L16.6 12H20.5C21.8807 12 23 13.1193 23 14.5V20.5C23 21.8807 21.8807 23 20.5 23H11.5C10.1193 23 9 21.8807 9 20.5V12.5Z" fill="white"/>
  <circle cx="16" cy="17.5" r="3.5" fill="#D32F2F"/>
</svg>
